<svg width="81" height="81" viewBox="0 0 81 81" fill="none" xmlns="http://www.w3.org/2000/svg">
<circle cx="40.5" cy="40.5" r="40.5" fill="white"/>
<path d="M43.5945 41.2974L61.1103 23.7817C61.7563 23.1356 61.7563 22.1306 61.1103 21.4846C60.4642 20.8385 59.4592 20.8385 58.8131 21.4846L41.2974 39.0003L23.7817 21.4846C23.1356 20.8385 22.1306 20.8385 21.4846 21.4846C20.8385 22.1306 20.8385 23.1356 21.4846 23.7817L39.0003 41.2974L21.4846 58.8131C20.8385 59.4592 20.8385 60.4642 21.4846 61.1103C21.7717 61.3974 22.2024 61.6128 22.6331 61.6128C23.0638 61.6128 23.4946 61.4692 23.7817 61.1103L41.2974 43.5946L58.8131 61.1103C59.1003 61.3974 59.531 61.6128 59.9617 61.6128C60.3924 61.6128 60.8231 61.4692 61.1103 61.1103C61.7563 60.4642 61.7563 59.4592 61.1103 58.8131L43.5945 41.2974Z" fill="black"/>
</svg>
