<?xml version="1.0" encoding="UTF-8"?> <svg xmlns="http://www.w3.org/2000/svg" id="a" viewBox="0 0 970.25 492.28"> <defs> <style>.b{fill:#ebfe7e;}.c{fill:#fcb4e7;}.d{fill:#fd4e22;}</style> </defs> <path class="c" d="M887.67,492.07c-.52,.14-1.05,.21-1.57,.21l-804.21-.27c-3.45,0-5.2-4.74-5.4-9.43l-.47-3.42c-4.84-33.33-31.57-59.41-65.01-63.42l-3.02-.37C3.63,415.24,0,412.23,0,408.68v-23.53H2.04c1.42,0,2.82-.19,4.18-.56,6.88-1.88,11.69-8.16,11.69-15.28,0-4.23-1.65-8.22-4.65-11.22-3-3-6.98-4.66-11.21-4.66H.02v-29.93H2.06c1.42,0,2.82-.19,4.17-.55,6.88-1.88,11.69-8.17,11.69-15.3,0-4.23-1.65-8.21-4.65-11.22-3-3-6.98-4.65-11.21-4.66H.04v-29.94H2.08c1.42,0,2.82-.19,4.18-.56,6.88-1.88,11.69-8.17,11.69-15.3,0-4.23-1.65-8.21-4.65-11.21-3-3-6.98-4.65-11.21-4.65H.06v-29.94H2.1c1.42,0,2.82-.19,4.18-.56,6.88-1.88,11.69-8.17,11.69-15.3,0-4.23-1.65-8.21-4.65-11.21-3-3-6.98-4.65-11.21-4.66H.08v-29.93H2.12c1.41,0,2.82-.18,4.17-.55,6.88-1.88,11.69-8.17,11.7-15.31,0-4.22-1.65-8.2-4.65-11.2-3-3-6.98-4.65-11.21-4.65H.1v-23.21c0-3,2.41-5.75,5.86-6.69,.73-.2,1.5-.31,2.27-.34l2.79-.35c3.7-.43,7.37-1.15,10.94-2.12,28.81-7.85,50.12-32.05,54.28-61.63l.47-3.51c.13-4.16,2.56-7.89,5.76-8.76C82.93,.06,83.42,0,83.9,0L887.65,.27c3.24,0,5.85,3.16,5.94,7.2l.27,2.37c3.43,34.31,30.76,62.33,64.97,66.64l3.14,.4c4.6,.13,8.29,2.82,8.29,6.11v24.14h-2.04c-1.42,0-2.82,.19-4.18,.56-6.88,1.88-11.69,8.16-11.69,15.28,0,4.23,1.65,8.22,4.65,11.22s6.98,4.66,11.21,4.66h2.03v29.93h-2.04c-1.42,0-2.82,.18-4.17,.55-6.88,1.88-11.69,8.17-11.69,15.3,0,4.23,1.65,8.21,4.65,11.21,3,3,6.98,4.65,11.21,4.66h2.03v29.94h-2.04c-1.42,0-2.82,.19-4.18,.56-6.88,1.88-11.69,8.17-11.69,15.3,0,4.23,1.65,8.21,4.65,11.21,3,3,6.98,4.65,11.21,4.65h2.03v29.94h-2.04c-1.41,0-2.82,.18-4.17,.55-6.88,1.88-11.69,8.17-11.69,15.31,0,8.74,7.11,15.86,15.86,15.87h2.03v29.93h-2.04c-1.42,0-2.82,.19-4.17,.56-6.88,1.88-11.7,8.17-11.7,15.31,0,4.22,1.65,8.2,4.65,11.2,3,3,6.98,4.65,11.21,4.65h2.03v23.53c0,2.84-2.37,5.39-5.88,6.34-.83,.23-1.71,.36-2.59,.38l-2.96,.38c-3.51,.44-7.01,1.13-10.41,2.06-29.03,7.91-50.35,32.3-54.32,62.13l-.46,3.3c-.16,4.04-2.62,7.6-5.87,8.48h0Z"></path> <g> <path class="b" d="M178.45,65.3v-3.15h25.77v3.15c-8.33,2.83-10.15,5.35-10.15,25.51v191.81h-15.62L123.02,90.19V253.96c0,20.16,1.82,22.68,10.15,25.51v3.15h-25.51v-3.15c8.33-2.83,10.15-5.35,10.15-25.51V75.38c-3.12-6.61-6.25-8.19-10.67-10.08v-3.15h35.4l46.33,169.13V90.82c0-20.16-1.82-22.68-10.41-25.51Z"></path> <path class="b" d="M288.81,138.69h-5.21c-6.25-67.09-9.37-70.24-22.9-70.24h-21.34v94.17h14.31c9.63,0,10.15-3.15,8.59-33.7h5.21l4.95,77.48h-5.21c-3.12-34.33-2.86-37.48-14.31-37.48h-13.53v107.4h23.16c13.01,0,16.66-3.46,22.9-72.13h5.21l-4.69,78.42h-80.42v-3.15c8.59-2.83,10.41-5.35,10.41-25.51V90.82c0-20.16-1.82-22.68-10.41-25.51v-3.15h78.34l4.95,76.53Z"></path> <path class="b" d="M336.7,285.46l-34.62-195.27c-3.64-19.84-6.77-22.05-15.36-24.88v-3.15h109.31v4.09c-7.29,1.26-10.67,6.93-13.53,23.62l-4.42,25.83,19.78,119.05,24.73-144.88c2.86-16.69,2.08-22.36-7.03-23.62v-4.09h27.59v3.15c-8.33,2.83-11.71,5.04-15.1,24.88l-34.1,195.27h-11.45l-17.18-96.69-16.92,96.69h-11.71Zm15.62-50.71l10.41-60.79-15.1-84.09c-2.86-16.69-6.25-23.62-13.01-23.62-8.07,0-9.11,7.87-6.77,23.62l24.47,144.88Zm22.9-135.43l1.56-9.45c2.34-13.23,2.08-19.21-1.3-22.05-3.64,2.52-4.16,8.5-1.82,22.05l1.56,9.45Z"></path> <path class="b" d="M543.6,65.3v-3.15h29.41v3.15c-8.59,2.83-11.97,5.04-16.14,24.57l-21.86,102.05v62.05c0,20.16,1.82,22.68,10.15,25.51v3.15h-43.99v-3.15c8.33-2.83,10.15-5.35,10.15-25.51v-57.95l-25.51-106.46c-4.68-19.21-8.33-21.42-16.92-24.25v-3.15h51.01v3.15c-11.45,2.83-11.97,5.04-7.55,24.57l19.78,86.93,19.26-86.93c4.16-19.53,3.38-21.73-7.81-24.57Z"></path> <path class="b" d="M562.6,172.39c0-80.63,20.04-113.07,48.41-113.07s48.41,32.13,48.41,113.07-20.04,113.07-48.41,113.07-48.41-32.44-48.41-113.07Zm48.41,106.77c15.36,0,21.86-24.25,21.86-106.77s-6.51-106.77-21.86-106.77-21.86,24.25-21.86,106.77,6.77,106.77,21.86,106.77Z"></path> <path class="b" d="M660.2,279.47c8.59-2.83,10.41-5.35,10.41-25.51V90.82c0-20.16-1.82-22.68-10.41-25.51v-3.15h13.79c17.96-.31,24.99-2.83,34.62-2.83,21.08,0,36.18,11.65,36.18,47.87,0,27.4-10.15,45.04-25.77,51.65,17.44,5.04,23.16,20.47,24.73,58.58,1.56,46.3,2.08,54.8,6.77,54.8,3.38,0,4.42-2.83,5.47-21.42l5.21,.63c-.78,23.31-5.47,34.02-18.74,34.02-16.14,0-20.3-14.8-22.12-57.01-1.82-46.61-3.38-67.09-15.1-67.09h-.26c-3.38,0-6.51-.31-10.93-1.26v93.86c0,20.16,1.82,22.68,10.15,25.51v3.15h-43.99v-3.15Zm42.94-124.41c13.01,0,17.44-19.21,17.44-47.24,0-29.61-5.73-42.2-17.18-42.2-3.38,0-5.99,.31-9.37,1.58v86.3c3.38,1.26,5.99,1.57,9.11,1.57Z"></path> <path class="b" d="M872.84,279.47v3.15h-52.31v-3.15c12.49-2.83,12.75-4.72,7.03-23.62l-25.77-84.09-8.07,19.21v62.99c0,20.16,1.82,22.68,10.15,25.51v3.15h-43.99v-3.15c8.59-2.83,10.41-5.35,10.41-25.51V90.82c0-20.16-1.82-22.68-10.41-25.51v-3.15h43.99v3.15c-8.33,2.83-10.15,5.35-10.15,25.51v83.46l40.86-94.17c4.68-10.08,5.21-13.86-6.25-13.86v-4.09h32.27v4.09c-11.71,0-15.36,4.09-20.3,14.8l-23.16,54.49,37.22,120.31c5.73,18.9,10.15,20.79,18.48,23.62Z"></path> </g> <g> <path class="d" d="M105.56,429.07c.76,0,1.13-.69,1.13-1.96,0-1.93-1.02-3.67-1.02-6.51v-13.27c0-2.33-.25-2.62-1.42-2.94v-.36h6.11v.36c-1.16,.33-1.42,.62-1.42,2.94v17.01c0,3.24-.51,5.45-3.31,5.45-1.42,0-1.93-.62-2.98-.62l-.69-8.87h.73c1.05,7.56,1.78,8.76,2.87,8.76Z"></path> <path class="d" d="M110.5,404.39v-.36h6.14v.36c-1.2,.33-1.45,.62-1.45,2.94v14.87c0,4.33,1.13,6.11,3.56,6.11s3.63-1.85,3.63-6v-14.97c0-2.33-.25-2.62-1.42-2.94v-.36h3.56v.36c-1.16,.33-1.42,.62-1.42,2.94v15.37c0,4.54-1.56,7.09-5.38,7.09s-5.82-2.36-5.82-7.6v-14.87c0-2.33-.25-2.62-1.42-2.94Z"></path> <path class="d" d="M134.71,404.39v-.36h3.6v.36c-1.16,.33-1.42,.62-1.42,2.94v22.13h-2.18l-7.74-22.21v18.9c0,2.33,.25,2.62,1.42,2.94v.36h-3.56v-.36c1.16-.33,1.42-.62,1.42-2.94v-20.61c-.44-.76-.87-.95-1.49-1.16v-.36h4.94l6.47,19.52v-16.21c0-2.33-.25-2.62-1.45-2.94Z"></path> <path class="d" d="M150.12,412.86h-.73c-.87-7.74-1.31-8.11-3.2-8.11h-2.98v10.87h2c1.34,0,1.42-.36,1.2-3.89h.73l.69,8.94h-.73c-.44-3.96-.4-4.33-2-4.33h-1.89v12.39h3.23c1.82,0,2.33-.4,3.2-8.32h.73l-.65,9.05h-11.23v-.36c1.2-.33,1.45-.62,1.45-2.94v-18.83c0-2.33-.25-2.62-1.45-2.94v-.36h10.94l.69,8.83Z"></path> <path class="d" d="M159.71,403.7h.36v22.46c0,2.33,.29,2.62,1.71,2.94v.36h-6.58v-.36c1.38-.33,1.67-.62,1.67-2.94v-15.19c0-1.71-.29-2.14-2.69-2.14v-.73c3.23-.14,4.43-1.09,5.52-4.4Z"></path> <path class="d" d="M168.51,403.7c1.56,0,2.33,.51,3.56,.51l.58,7.09h-.76c-.51-6.14-1.85-6.87-3.13-6.87-2.54,0-3.23,4.62-3.42,10.03,1.02-1.05,2.25-1.78,3.82-1.78,2.4,0,4.54,2.33,4.54,8,0,6.54-2.47,9.12-5.89,9.12s-6.21-2.54-6.21-12.43c0-8.72,2.58-13.67,6.91-13.67Zm-.76,25.37c1.56,0,2.25-1.6,2.25-7.96,0-5.63-.69-7.12-2.11-7.12-.65,0-1.38,.25-2.54,1.27-.04,.98-.04,2-.04,2.98,0,8.91,.73,10.83,2.44,10.83Z"></path> <path class="d" d="M109.12,436.82c0-2.25-.47-3.34-2.04-3.34s-2.73,.98-3.67,8.21h-.73l.69-8.43c1.27,0,2.18-.51,4.03-.51,3.34,0,5.27,1.56,5.27,5.12,0,6.51-4.4,12.29-8.72,17.96h4.18c2.22,0,2.83-.36,3.67-6.91h.73l-.87,9.6h-9.81v-.73c3.67-7.74,7.27-14.79,7.27-20.97Z"></path> <path class="d" d="M113.52,445.79c0-9.89,2.54-13.05,6.07-13.05s6.11,3.13,6.11,13.05-2.54,13.05-6.11,13.05-6.07-3.2-6.07-13.05Zm6.07,12.32c1.82,0,2.54-2.54,2.54-12.32s-.73-12.32-2.54-12.32-2.47,2.58-2.47,12.32,.65,12.32,2.47,12.32Z"></path> <path class="d" d="M133.03,436.82c0-2.25-.47-3.34-2.04-3.34s-2.73,.98-3.67,8.21h-.73l.69-8.43c1.27,0,2.18-.51,4.03-.51,3.34,0,5.27,1.56,5.27,5.12,0,6.51-4.4,12.29-8.72,17.96h4.18c2.22,0,2.83-.36,3.67-6.91h.73l-.87,9.6h-9.81v-.73c3.67-7.74,7.27-14.79,7.27-20.97Z"></path> <path class="d" d="M141.68,458.12c1.89,0,2.76-3.02,2.76-7.56,0-3.56-.54-6.21-2.14-6.21-.8,0-1.45,.54-2.25,1.31l-.47-.58c2.4-2.98,3.93-5.49,3.93-9.2,0-1.42-.36-2.4-1.56-2.4-1.42,0-2.47,1.05-3.45,8.21h-.73l.65-8.43c1.38,0,2.47-.51,4.29-.51,2.44,0,4.14,.98,4.14,3.63,0,3.45-1.78,5.67-4.03,7.09,2.76-.65,5.34,1.45,5.34,7.16s-2.83,8.21-6.36,8.21c-1.82,0-2.51-.51-3.74-.51l-.69-9.41h.73c.98,8.11,2.07,9.2,3.6,9.2Z"></path> </g> <g> <path class="d" d="M775.56,407.19l-1.16,18.97c-.15,2.33,.07,2.62,1.42,2.94v.36h-3.78v-.36c1.2-.33,1.49-.62,1.63-2.94l1.13-18.83c.15-2.33-.07-2.62-1.34-2.94v-.36h4.94l3.6,18.28,3.38-18.28h4.83v.36c-1.27,.33-1.49,.62-1.34,2.94l1.24,18.83c.18,2.33,.47,2.62,1.67,2.94v.36h-6.36v-.36c1.31-.33,1.53-.62,1.38-2.94l-1.24-18.97-4.14,22.28h-1.53l-4.33-22.28Z"></path> <path class="d" d="M803.73,412.86h-.73c-.87-7.74-1.31-8.11-3.2-8.11h-2.98v10.87h2c1.34,0,1.42-.36,1.2-3.89h.73l.69,8.94h-.73c-.44-3.96-.4-4.33-2-4.33h-1.89v12.39h3.24c1.82,0,2.33-.4,3.2-8.32h.73l-.65,9.05h-11.23v-.36c1.2-.33,1.45-.62,1.45-2.94v-18.83c0-2.33-.25-2.62-1.45-2.94v-.36h10.94l.69,8.83Z"></path> <path class="d" d="M804.27,429.11c1.2-.33,1.45-.62,1.45-2.94v-18.83c0-2.33-.25-2.62-1.45-2.94v-.36h6.14v.36c-1.16,.33-1.42,.62-1.42,2.94v21.41h2.87c2.07,0,2.51-.4,3.45-8.32h.73l-.65,9.05h-11.12v-.36Z"></path> <path class="d" d="M816.01,429.11c1.2-.33,1.45-.62,1.45-2.94v-18.83c0-2.33-.25-2.62-1.45-2.94v-.36h1.93c2.51-.04,3.49-.33,4.83-.33,2.94,0,5.05,1.34,5.05,5.52,0,3.16-1.42,5.2-3.6,5.96,2.44,.58,3.24,2.36,3.45,6.76,.22,5.34,.29,6.32,.95,6.32,.47,0,.62-.33,.76-2.47l.73,.07c-.11,2.69-.76,3.93-2.62,3.93-2.25,0-2.83-1.71-3.09-6.58-.25-5.38-.47-7.74-2.11-7.74h-.04c-.47,0-.91-.04-1.53-.15v10.83c0,2.33,.25,2.62,1.42,2.94v.36h-6.14v-.36Zm6-14.36c1.82,0,2.43-2.22,2.43-5.45,0-3.42-.8-4.87-2.4-4.87-.47,0-.84,.04-1.31,.18v9.96c.47,.15,.84,.18,1.27,.18Z"></path> <path class="d" d="M829.5,416.75c0-9.3,2.8-13.05,6.76-13.05s6.76,3.71,6.76,13.05-2.8,13.05-6.76,13.05-6.76-3.74-6.76-13.05Zm6.76,12.32c2.14,0,3.05-2.8,3.05-12.32s-.91-12.32-3.05-12.32-3.05,2.8-3.05,12.32,.95,12.32,3.05,12.32Z"></path> <path class="d" d="M848.43,429.07c1.53,0,2.22-1.09,2.22-3.13,0-3.09-1.82-6.03-3.85-9.63-1.78-3.2-3.49-5.71-3.49-8.47,0-2.36,1.67-4.14,4.87-4.14,1.63,0,2.8,.4,4.43,.4l.69,8.76h-.73c-.84-7.05-1.89-8.43-3.85-8.43-1.38,0-2.07,1.05-2.07,2.51,0,2.14,1.53,4.58,3.31,7.81,1.93,3.2,4,6.69,4,10.14s-1.93,4.91-4.87,4.91c-1.82,0-3.16-.4-4.94-.4l-.65-8.98h.73c.84,7.09,2.29,8.65,4.22,8.65Z"></path> <path class="d" d="M865.62,412.86h-.73c-.87-7.74-1.31-8.11-3.2-8.11h-2.98v10.87h2c1.34,0,1.42-.36,1.2-3.89h.73l.69,8.94h-.73c-.44-3.96-.4-4.33-2-4.33h-1.89v12.39h3.23c1.82,0,2.33-.4,3.2-8.32h.73l-.65,9.05h-11.23v-.36c1.2-.33,1.45-.62,1.45-2.94v-18.83c0-2.33-.25-2.62-1.45-2.94v-.36h10.94l.69,8.83Z"></path> <path class="d" d="M754.92,433.44v-.36h1.93c2.4-.04,3.34-.33,4.87-.33,3.2,0,5.12,1.67,5.12,6.03,0,3.6-1.49,5.2-3.31,5.85,2.44,.73,4.22,2.76,4.22,7.2,0,5.31-2.62,7.01-6,7.01-1.6,0-2.47-.29-4.91-.33h-1.93v-.36c1.2-.33,1.45-.62,1.45-2.94v-18.83c0-2.33-.25-2.62-1.45-2.94Zm5.92,10.83c1.67,0,2.62-1.38,2.62-5.49s-.95-5.31-2.51-5.31c-.51,0-.87,.07-1.31,.18v10.43c.4,.11,.73,.18,1.2,.18Zm.18,13.85c2,0,3.16-1.42,3.16-6.22s-1.05-6.91-3.02-6.91c-.65,0-1.02-.07-1.53-.18v13.08c.51,.15,.87,.22,1.38,.22Z"></path> <path class="d" d="M771.35,458.15v.36h-4.29v-.36c1.2-.33,1.6-.62,2.04-2.87l3.6-20.32-.18-1.05v-.36c1.42,0,2.07-.07,2.91-.8h.36l4.07,22.54c.44,2.25,.87,2.54,2.04,2.87v.36h-7.05v-.36c1.71-.33,1.93-.62,1.53-2.87l-.65-3.56h-5.27l-.62,3.56c-.4,2.25-.22,2.54,1.53,2.87Zm4.25-7.16l-2.54-14.03-2.47,14.03h5.02Z"></path> <path class="d" d="M781.92,458.15c1.2-.33,1.45-.62,1.45-2.94v-18.83c0-2.33-.25-2.62-1.45-2.94v-.36h6.14v.36c-1.16,.33-1.42,.62-1.42,2.94v21.41h2.87c2.07,0,2.51-.4,3.45-8.32h.73l-.65,9.05h-11.12v-.36Z"></path> <path class="d" d="M793.66,458.15c1.2-.33,1.45-.62,1.45-2.94v-18.83c0-2.33-.25-2.62-1.45-2.94v-.36h6.14v.36c-1.16,.33-1.42,.62-1.42,2.94v21.41h2.87c2.07,0,2.51-.4,3.45-8.32h.73l-.65,9.05h-11.12v-.36Z"></path> <path class="d" d="M805.4,458.15c1.2-.33,1.45-.62,1.45-2.94v-18.83c0-2.33-.25-2.62-1.45-2.94v-.36h1.93c2.51-.04,3.49-.33,4.83-.33,2.94,0,5.05,1.34,5.05,5.52,0,3.16-1.42,5.2-3.6,5.96,2.44,.58,3.24,2.36,3.45,6.76,.22,5.34,.29,6.32,.95,6.32,.47,0,.62-.33,.76-2.47l.73,.07c-.11,2.69-.76,3.93-2.62,3.93-2.25,0-2.83-1.71-3.09-6.58-.25-5.38-.47-7.74-2.11-7.74h-.04c-.47,0-.91-.04-1.53-.15v10.83c0,2.33,.25,2.62,1.42,2.94v.36h-6.14v-.36Zm6-14.36c1.82,0,2.43-2.22,2.43-5.45,0-3.42-.8-4.87-2.4-4.87-.47,0-.84,.04-1.31,.18v9.96c.47,.15,.84,.18,1.27,.18Z"></path> <path class="d" d="M818.88,445.79c0-9.3,2.8-13.05,6.76-13.05s6.76,3.71,6.76,13.05-2.8,13.05-6.76,13.05-6.76-3.74-6.76-13.05Zm6.76,12.32c2.14,0,3.05-2.8,3.05-12.32s-.91-12.32-3.05-12.32-3.05,2.8-3.05,12.32,.94,12.32,3.05,12.32Z"></path> <path class="d" d="M832.98,445.79c0-9.3,2.8-13.05,6.76-13.05s6.76,3.71,6.76,13.05-2.8,13.05-6.76,13.05-6.76-3.74-6.76-13.05Zm6.76,12.32c2.14,0,3.05-2.8,3.05-12.32s-.91-12.32-3.05-12.32-3.05,2.8-3.05,12.32,.94,12.32,3.05,12.32Z"></path> <path class="d" d="M849.59,436.24l-1.16,18.97c-.15,2.33,.07,2.62,1.42,2.94v.36h-3.78v-.36c1.2-.33,1.49-.62,1.63-2.94l1.13-18.83c.15-2.33-.07-2.62-1.34-2.94v-.36h4.94l3.6,18.28,3.38-18.28h4.83v.36c-1.27,.33-1.49,.62-1.34,2.94l1.24,18.83c.18,2.33,.47,2.62,1.67,2.94v.36h-6.36v-.36c1.31-.33,1.53-.62,1.38-2.94l-1.24-18.97-4.14,22.28h-1.53l-4.33-22.28Z"></path> </g> <rect class="d" x="103.72" y="33.89" width="762.8" height="2"></rect> <rect class="d" x="103.72" y="307.71" width="762.8" height="2"></rect> <g> <path class="b" d="M462.27,407.98l-3.18-2.83h-4.54v-18.04h-3.21v7.19l1.22,13.69h9.7Z"></path> <path class="b" d="M464.63,408.04l.98,2.33,1.01-2.33,.57-13.75v-7.19h-.57v-.03l-1.01,.03-.98-.03v.03h-.65v7.19h.03l.62,13.75Z"></path> <path class="b" d="M469.44,387.11v2.8h3.86v4.38h.03l.62,13.75,.98,2.3,1.01-2.3,.57-13.75v-4.38h3.86v-2.8h-10.92Z"></path> <path class="b" d="M482.53,387.11v2.8h3.86v4.38h.03l.63,13.75,.98,2.3,1-2.3,.57-13.75v-4.38h3.86v-2.8h-10.92Z"></path> <path class="b" d="M506.54,407.98l-3.18-2.83h-4.54v-18.04h-3.21v7.19l1.22,13.69h9.7Z"></path> <path class="b" d="M511.43,405.18v-9.45h4.59l1.57-1.43-1.57-1.4h-4.59v-2.98h4.54l3.21-2.8h-10.92v7.19l1.2,13.72h1.98v-.03h7.74l-3.21-2.8h-4.54Z"></path> <path class="b" d="M451.94,412.08v46.76l2.24,5.2,5.16-2.73c.57-.27,1.33-.77,2.31-1.5,.97-.73,2.03-1.68,3.19-2.83,1.15-1.15,2.35-2.48,3.58-3.96,1.23-1.49,2.39-3.14,3.46-4.96,1.07-1.82,2.01-3.79,2.82-5.9,.81-2.11,1.37-4.32,1.7-6.63v-.87c0-1.29-.26-2.48-.79-3.56-.53-1.09-1.25-2.08-2.18-2.96,.93-.84,1.66-1.81,2.18-2.9,.52-1.09,.79-2.27,.79-3.56v-9.59h-24.45Zm17.11,23.45c-.24,2.44-.8,4.9-1.67,7.36-.87,2.46-1.9,4.76-3.09,6.9-1.19,2.13-2.49,4-3.88,5.6-1.4,1.6-2.74,2.75-4.04,3.46l2.49-27.51h6.07c1.13-.04,2.1,.27,2.91,.93,.81,.67,1.21,1.46,1.21,2.4v.87Zm0-13.85c0,.93-.4,1.73-1.21,2.4-.81,.67-1.8,.98-2.97,.93v.07h-5.77v-6.73h9.95v3.33Z"></path> <path class="b" d="M487.5,412.02l-2.24,.07-2.18-.07v.07h-1.46v16.05h.06l1.4,30.71,2.18,5.2,2.24-5.2,1.28-30.71v-16.05h-1.28v-.07Z"></path> <path class="b" d="M510.64,435.63c-.3,2.6-.7,5.1-1.18,7.49-.49,2.4-1.03,4.58-1.64,6.56-.61,1.98-1.21,3.56-1.82,4.76-.61-1.2-1.21-2.79-1.82-4.76-.61-1.98-1.14-4.16-1.61-6.56-.47-2.4-.85-4.9-1.15-7.49-.3-2.6-.45-5.1-.45-7.49v-9.79h17.23v-6.26h-24.39v16.05c0,2.66,.23,5.28,.7,7.86,.47,2.58,1.06,5.04,1.79,7.39,.73,2.35,1.51,4.53,2.34,6.53,.83,2,1.61,3.74,2.34,5.23,.73,1.49,1.36,2.67,1.88,3.56,.53,.89,.81,1.38,.85,1.46l2.31,4.2,2.37-4.2c.04-.09,.32-.58,.85-1.46,.52-.89,1.15-2.08,1.88-3.56,.73-1.49,1.51-3.23,2.34-5.23,.83-2,1.61-4.17,2.34-6.53,.73-2.35,1.32-4.82,1.79-7.39,.47-2.57,.7-5.2,.7-7.86h-7.16c0,2.4-.15,4.9-.45,7.49h0Z"></path> </g> </svg> 